<svg width="39" height="40" viewBox="0 0 39 40" fill="none" xmlns="http://www.w3.org/2000/svg">
<g clip-path="url(#clip0)">
<path d="M25.3449 19.9975C25.3449 23.0958 22.7233 25.6074 19.4894 25.6074C16.2555 25.6074 13.6339 23.0958 13.6339 19.9975C13.6339 16.8992 16.2555 14.3876 19.4894 14.3876C22.7233 14.3876 25.3449 16.8993 25.3449 19.9975ZM19.5 8.31689C16.1517 8.33175 12.681 9.14688 9.39562 10.7075C6.95623 11.914 4.57892 13.6161 2.5153 15.7171C1.50176 16.7895 0.209008 18.3425 0 19.9993C0.0247 21.4346 1.56422 23.2061 2.5153 24.2816C4.45045 26.3001 6.76585 27.9547 9.39562 29.2925C12.4594 30.7794 15.8506 31.6354 19.5 31.6831C22.8515 31.668 26.3214 30.8435 29.6031 29.2925C32.0425 28.086 34.421 26.3826 36.4847 24.2816C37.4982 23.2092 38.791 21.6562 39 19.9993C38.9753 18.5641 37.4358 16.7925 36.4847 15.717C34.5495 13.6986 32.2329 12.0452 29.6031 10.7074C26.5409 9.22166 23.1414 8.37146 19.5 8.31689ZM19.4975 11.2175C24.5714 11.2175 28.6845 15.1498 28.6845 20.0006C28.6845 24.8514 24.5714 28.7837 19.4975 28.7837C14.4237 28.7837 10.3106 24.8514 10.3106 20.0006C10.3106 15.1498 14.4237 11.2175 19.4975 11.2175Z" fill="#EAECEE"/>
</g>
<defs>
<clipPath id="clip0">
<rect width="39" height="39" fill="white" transform="translate(0 0.5)"/>
</clipPath>
</defs>
</svg>
