<svg width="39" height="40" viewBox="0 0 39 40" fill="none" xmlns="http://www.w3.org/2000/svg">
<path d="M21.7661 8.96492C21.0222 8.88445 20.2663 8.83834 19.5 8.82686C16.1517 8.84172 12.6808 9.65617 9.39533 11.2168C6.95595 12.4233 4.57971 14.1265 2.51605 16.2274C1.50254 17.2999 0.209008 18.8529 0 20.5097C0.0247 21.945 1.56497 23.7165 2.51605 24.7921C4.4512 26.8105 6.76556 28.465 9.39533 29.8027C9.48471 29.8461 9.57441 29.889 9.66431 29.9312L7.22446 34.1921L10.5396 36.1514L28.4607 4.95026L25.2696 3L21.7661 8.96492V8.96492ZM29.3333 11.093L26.8982 15.3134C28.0185 16.7688 28.6835 18.5635 28.6835 20.5097C28.6835 25.3606 24.5715 29.2933 19.4976 29.2933C19.2783 29.2933 19.0657 29.2696 18.8501 29.2552L17.2386 32.045C17.9818 32.1246 18.7333 32.1826 19.5 32.1926C22.8515 32.1776 26.3205 31.3537 29.6023 29.8027C32.0417 28.5962 34.4203 26.893 36.4839 24.7921C37.4975 23.7196 38.791 22.1666 39 20.5097C38.9753 19.0745 37.435 17.303 36.4839 16.2274C34.5488 14.209 32.2321 12.5545 29.6023 11.2167C29.5135 11.1737 29.4227 11.135 29.3333 11.093V11.093ZM19.4976 11.7262C19.7201 11.7262 19.9409 11.7351 20.1594 11.75L18.2717 15.0182C15.6225 15.5553 13.6348 17.8093 13.6348 20.5074C13.6348 21.1851 13.7596 21.834 13.9894 22.4354C13.9897 22.4361 13.9892 22.4372 13.9894 22.4378L12.097 25.7156C10.9741 24.2589 10.3117 22.4582 10.3117 20.5097C10.3118 15.6589 14.4238 11.7262 19.4976 11.7262V11.7262ZM24.9891 18.6173L20.7354 25.987C23.3704 25.4398 25.3438 23.196 25.3438 20.5074C25.3438 19.842 25.211 19.2094 24.9891 18.6173V18.6173Z" fill="#EAECEE"/>
</svg>
